<?xml version="1.0" encoding="utf-8"?>
<!-- Svg Vector Icons : http://www.onlinewebfonts.com/icon -->
<!DOCTYPE svg PUBLIC "-//W3C//DTD SVG 1.1//EN" "http://www.w3.org/Graphics/SVG/1.1/DTD/svg11.dtd">
<svg version="1.1" xmlns="http://www.w3.org/2000/svg" xmlns:xlink="http://www.w3.org/1999/xlink" x="0px" y="0px" viewBox="0 0 1000 1000" enable-background="new 0 0 1000 1000" xml:space="preserve">
<metadata> Svg Vector Icons : http://www.onlinewebfonts.com/icon </metadata>
<g><g transform="translate(0.000000,511.000000) scale(0.100000,-0.100000)"><path d="M3489.9,3857.5c-1619.3-90.6-2785.4-316-3199.4-619.8c-191.1-139.6-196-171.5-188.6-845.2l7.3-587.9l73.5-75.9c222.9-232.7,830.5-426.3,1800.6-573.2C2510,1074.6,3271.9,998.6,3754.5,979c213.1-9.8,392-26.9,399.3-39.2c22-34.3,622.2-2349.3,622.2-2395.8c0-31.8-352.8-921.1-377.3-948.1c-2.5-4.9-2084.7-448.3-2106.8-448.3c-7.4,0-14.7-181.3-14.7-404.2v-404.2h196h196v137.2c0,129.8,2.5,137.2,56.3,125c659-161.7,1141.6-215.6,2040.6-230.3c1104.8-19.6,2055.3,76,2515.9,249.9c36.7,14.7,41.7,0,41.7-132.3v-149.4h196h196v404.2c0,222.9-7.3,404.2-17.1,404.2c-19.6,0-2099.4,443.4-2104.3,450.7c-22.1,22.1-377.3,913.8-377.3,945.6c0,46.5,600.2,2361.5,622.2,2395.8c7.3,12.2,183.7,29.4,392,39.2c1827.5,78.4,3432.1,441,3628.1,823.1c56.3,110.2,53.9,1146.5-4.9,1266.5c-188.6,396.9-1425.8,681-3437,791.3C5890.6,3889.3,4023.9,3886.9,3489.9,3857.5z M5694.7,3494.9c1469.8-44.1,2454.6-149.4,3282.7-345.4c325.8-78.4,453.2-124.9,502.2-186.2c31.8-34.3,29.4-46.5-17.2-80.8c-73.5-61.2-333.2-137.2-754.5-220.5c-1974.5-394.4-5460.5-394.4-7410.5-2.5c-423.8,85.7-678.6,159.2-759.4,222.9l-61.2,44.1l51.4,53.9c132.3,132.3,1107.3,325.8,2141.1,423.8c409.1,39.2,1261.6,85.7,1714.8,95.5c154.3,2.5,330.7,7.4,392,12.2C4837.3,3514.5,5251.3,3507.2,5694.7,3494.9z M1346.4,2257.8c2170.5-436.1,6388.9-352.8,7883.3,154.3l274.4,93.1v-316v-316l-85.7-36.7c-117.6-49-516.9-142.1-926-218c-2501.2-458.1-5854.9-367.5-7824.5,213.1L489,1883v311.1v311.1l276.8-93.1C915.2,2360.7,1177.3,2292.1,1346.4,2257.8z M5334.5,584.6c-51.4-200.9-147-563.4-210.7-808.4c-63.7-247.4-120-448.3-127.4-448.3c-7.3,0-63.7,200.9-127.4,448.3c-63.7,245-159.2,607.5-210.7,808.4l-95.6,360.1h433.6h433.6L5334.5,584.6z M5163.1-2382l151.9-362.6l796.2-169c438.5-93.1,791.3-171.5,788.8-176.4c-17.2-17.1-661.4-105.3-960.3-132.3c-426.2-36.7-1440.4-36.7-1849.5,0c-325.8,29.4-955.4,117.6-972.6,134.7c-12.2,12.2-24.5,7.4,830.5,188.6l730,154.3l151.9,362.6c85.7,198.4,159.2,362.6,166.6,362.6C5003.8-2019.5,5077.3-2183.6,5163.1-2382z"/></g></g>
</svg>